HIERARCHY
ROOT Hips
{
	OFFSET 0.000000 0.000000 0.000000
	CHANNELS 6 Xposition Yposition Zposition Xrotation Yrotation Zrotation
	JOINT LeftUpLeg_virtual
	{
		OFFSET 0.000000 0.000000 0.000000
		CHANNELS 3 Xrotation Yrotation Zrotation
		JOINT LeftUpLeg
		{
			OFFSET 15.427100 -6.655098 0.678600
			CHANNELS 3 Xrotation Yrotation Zrotation
			JOINT LeftLeg
			{
				OFFSET 4.081073 -39.591068 13.024000
				CHANNELS 3 Xrotation Yrotation Zrotation
				JOINT LeftFoot
				{
					OFFSET -4.081074 -37.707932 -15.979700
					CHANNELS 3 Xrotation Yrotation Zrotation
					JOINT LeftToeBase
					{
						OFFSET 5.346399 -15.068900 20.645000
						CHANNELS 3 Xrotation Yrotation Zrotation
						JOINT LeftToe_End
						{
							OFFSET 2.754700 0.931300 11.300900
							CHANNELS 3 Xrotation Yrotation Zrotation
							End Site
							{
								OFFSET 0 0 0
							}
						}
					}
				}
			}
		}
	}
	JOINT RightUpLeg_virtual
	{
		OFFSET 0.000000 0.000000 0.000000
		CHANNELS 3 Xrotation Yrotation Zrotation
		JOINT RightUpLeg
		{
			OFFSET -15.569500 -6.655098 0.678600
			CHANNELS 3 Xrotation Yrotation Zrotation
			JOINT RightLeg
			{
				OFFSET -4.081825 -39.591045 13.023800
				CHANNELS 3 Xrotation Yrotation Zrotation
				JOINT RightFoot
				{
					OFFSET 4.081824 -37.707954 -15.979600
					CHANNELS 3 Xrotation Yrotation Zrotation
					JOINT RightToeBase
					{
						OFFSET -5.346400 -15.068900 20.645000
						CHANNELS 3 Xrotation Yrotation Zrotation
						JOINT RightToe_End
						{
							OFFSET -2.754700 0.931300 11.300900
							CHANNELS 3 Xrotation Yrotation Zrotation
							End Site
							{
								OFFSET 0 0 0
							}
						}
					}
				}
			}
		}
	}
	JOINT Spine_virtual
	{
		OFFSET 0.000000 0.000000 0.000000
		CHANNELS 3 Xrotation Yrotation Zrotation
		JOINT Spine
		{
			OFFSET -0.279200 12.230698 -2.892100
			CHANNELS 3 Xrotation Yrotation Zrotation
			JOINT Spine1
			{
				OFFSET -0.232667 10.192268 -1.242267
				CHANNELS 3 Xrotation Yrotation Zrotation
				JOINT Spine1_split
				{
					OFFSET -0.232667 10.192268 -1.242267
					CHANNELS 3 Xrotation Yrotation Zrotation
					JOINT Spine2
					{
						OFFSET -0.232667 10.192268 -1.242267
						CHANNELS 3 Xrotation Yrotation Zrotation
						JOINT Neck_virtual
						{
							OFFSET 0.000000 0.000000 0.000000
							CHANNELS 3 Xrotation Yrotation Zrotation
							JOINT Neck
							{
								OFFSET -0.418800 17.814194 8.416900
								CHANNELS 3 Xrotation Yrotation Zrotation
								JOINT Head
								{
									OFFSET 0.000000 7.031097 3.806800
									CHANNELS 3 Xrotation Yrotation Zrotation
									JOINT HeadTop_End
									{
										OFFSET 0.000000 24.646606 12.978600
										CHANNELS 3 Xrotation Yrotation Zrotation
										End Site
										{
											OFFSET 0 0 0
										}
									}
								}
							}
						}
						JOINT LeftShoulder_virtual
						{
							OFFSET 0.000000 0.000000 0.000000
							CHANNELS 3 Xrotation Yrotation Zrotation
							JOINT LeftShoulder
							{
								OFFSET 8.476499 7.247704 -3.868750
								CHANNELS 3 Xrotation Yrotation Zrotation
								JOINT LeftShoulder_split
								{
									OFFSET 8.476499 7.247704 -3.868750
									CHANNELS 3 Xrotation Yrotation Zrotation
									JOINT LeftArm
									{
										OFFSET 9.308998 -2.777710 0.208600
										CHANNELS 3 Xrotation Yrotation Zrotation
										JOINT LeftForeArm
										{
											OFFSET 29.972298 0.000000 0.000000
											CHANNELS 3 Xrotation Yrotation Zrotation
											JOINT LeftHand
											{
												OFFSET 26.026505 0.000000 0.000000
												CHANNELS 3 Xrotation Yrotation Zrotation
												End Site
												{
													OFFSET 0 0 0
												}
											}
										}
									}
								}
							}
						}
						JOINT RightShoulder_virtual
						{
							OFFSET 0.000000 0.000000 0.000000
							CHANNELS 3 Xrotation Yrotation Zrotation
							JOINT RightShoulder
							{
								OFFSET -7.570500 7.247704 -3.868750
								CHANNELS 3 Xrotation Yrotation Zrotation
								JOINT RightShoulder_split
								{
									OFFSET -7.570500 7.247704 -3.868750
									CHANNELS 3 Xrotation Yrotation Zrotation
									JOINT RightArm
									{
										OFFSET -9.308998 -2.777710 0.208500
										CHANNELS 3 Xrotation Yrotation Zrotation
										JOINT RightForeArm
										{
											OFFSET -29.972300 0.000000 0.000000
											CHANNELS 3 Xrotation Yrotation Zrotation
											JOINT RightHand
											{
												OFFSET -26.026505 0.000000 0.000000
												CHANNELS 3 Xrotation Yrotation Zrotation
												End Site
												{
													OFFSET 0 0 0
												}
											}
										}
									}
								}
							}
						}
					}
				}
			}
		}
	}
}
MOTION
Frames: 5
Frame Time: 0.03333333
-6.394602 82.937386 3.767960 0.000000 0.000000 0.000000 -21.556900 -67.442060 -21.610720 -28.103834 -0.003249 29.866471 35.924056 8.467459 -7.409333 -1.390903 2.915770 -11.852105 1.809212 2.063620 0.115852 0.000000 0.000000 0.000000 -21.710986 -61.160034 -18.653805 -18.742338 -22.716499 -24.425684 38.071594 -9.922218 2.890399 -14.812696 -4.467489 13.703368 -5.719528 -2.030323 5.226343 0.000000 0.000000 0.000000 -30.110735 -63.451542 -25.967783 5.744831 13.436126 4.190564 2.980071 2.491007 1.537188 0.288280 3.964419 0.429693 0.000000 0.000000 0.000000 13.979509 5.568361 -2.074066 11.925397 7.441124 -2.533504 25.253171 43.583369 -13.549600 0.000000 0.000000 0.000000 14.175401 4.853803 -1.778827 9.834853 -11.292925 -6.398592 -1.499370 -14.443290 -4.166267 2.922838 -12.368306 -36.693402 -86.460810 7.981009 -79.590166 0.000000 0.000000 0.000000 14.314861 6.214960 -0.051316 3.595949 6.289984 -10.614321 -1.563631 -2.960310 -11.782025 -10.855492 31.855060 41.336438 -65.824097 74.200976 54.442502 0.000000 0.000000 0.000000 
-6.421970 83.046654 5.512634 0.000000 0.000000 0.000000 -21.337410 -67.511919 -21.425445 -28.085326 1.058892 30.252755 36.386077 7.995656 -7.532694 -1.942011 2.790864 -11.775822 1.371181 1.944960 0.626055 0.000000 0.000000 0.000000 -21.123494 -61.428140 -18.187670 -19.153061 -22.060835 -24.097908 38.694603 -9.888820 2.282872 -14.556330 -5.276281 13.294798 -4.809879 -2.142328 5.642766 0.000000 0.000000 0.000000 -28.299980 -63.448837 -24.661189 5.772973 13.269962 4.164295 3.442826 2.734316 1.636123 0.008394 5.143620 0.293406 0.000000 0.000000 0.000000 14.053908 5.904946 -2.072734 11.619741 7.382378 -2.320980 24.619676 44.143571 -14.033181 0.000000 0.000000 0.000000 14.549659 5.206111 -1.875940 10.063633 -11.089496 -5.761748 -3.079587 -12.162368 -5.496094 1.464447 -10.585781 -37.690087 -86.351124 8.591437 -79.269441 0.000000 0.000000 0.000000 15.023838 6.645404 -0.124370 3.372064 8.191710 -11.010650 -2.157428 -1.657108 -11.516177 -10.596630 33.266720 41.994411 -68.183333 74.531721 56.670250 0.000000 0.000000 0.000000 
-6.122917 83.032982 7.499065 0.000000 0.000000 0.000000 -20.316927 -66.402512 -20.244636 -29.211015 2.619549 30.060428 37.697867 7.051086 -7.819838 -3.791324 2.958909 -10.841408 0.709766 1.810650 1.339700 0.000000 0.000000 0.000000 -19.612827 -60.621829 -16.739187 -19.922082 -20.964014 -23.152472 39.691377 -9.062611 1.358231 -13.998258 -6.289453 13.346764 -4.312743 -2.093914 5.647469 0.000000 0.000000 0.000000 -25.285487 -63.187282 -22.067759 6.052428 13.104152 4.542298 3.508044 3.813027 1.552694 -0.321506 5.942475 0.343552 0.000000 0.000000 0.000000 14.120591 7.001022 -2.243874 10.396277 7.675212 -2.563668 23.362911 45.070390 -15.220641 0.000000 0.000000 0.000000 14.486643 6.441209 -2.122486 10.166728 -11.048416 -4.712110 -3.844807 -10.201304 -6.419723 -1.587498 -7.876713 -39.665446 -86.935570 8.832564 -79.714182 0.000000 0.000000 0.000000 15.653725 7.877600 -0.470322 3.443542 10.996582 -10.915260 -2.631659 -1.697600 -12.460386 -9.000522 35.173275 41.938724 -70.237540 74.505124 58.558852 0.000000 0.000000 0.000000 
-5.693993 82.966133 9.275608 0.000000 0.000000 0.000000 -18.601559 -64.487777 -18.282478 -31.011613 4.265296 29.078697 39.499670 5.682343 -8.005331 -6.186429 3.261364 -9.437754 -0.037811 1.650515 2.025497 0.000000 0.000000 0.000000 -17.711811 -59.149937 -14.840630 -21.179763 -19.463891 -21.713969 40.975223 -7.479301 0.207923 -13.134827 -7.249864 13.966779 -4.506657 -1.906629 5.264927 0.000000 0.000000 0.000000 -21.502354 -62.625731 -18.670834 6.353442 12.887736 5.212632 3.199861 5.416420 1.393073 -0.464943 5.828337 0.254788 0.000000 0.000000 0.000000 14.226931 8.590413 -2.497072 8.504185 8.373062 -2.965263 21.875294 46.071351 -16.935601 0.000000 0.000000 0.000000 14.210951 8.233795 -2.487122 10.195857 -11.403734 -3.372529 -3.598300 -8.784812 -7.122677 -5.918965 -5.309349 -42.254593 -87.401846 8.815047 -80.238638 0.000000 0.000000 0.000000 16.166865 9.619644 -1.020145 3.754310 14.047884 -10.338275 -3.136321 -3.430563 -13.354406 -6.845767 36.706297 41.554270 -72.899251 74.247380 61.027187 0.000000 0.000000 0.000000 
-5.125107 82.728027 10.869507 0.000000 0.000000 0.000000 -16.599352 -62.047440 -15.958990 -32.916215 5.621534 27.426087 41.271063 4.004264 -7.916546 -8.057760 3.508083 -8.116415 -0.871069 1.446909 2.558492 0.000000 0.000000 0.000000 -15.705603 -57.104213 -12.757476 -22.498507 -17.574913 -19.829805 42.191745 -5.354896 -1.183809 -12.508865 -8.033473 14.788843 -5.314568 -1.621369 4.582879 0.000000 0.000000 0.000000 -17.540607 -61.636023 -15.078008 6.615560 12.504196 5.859930 2.603680 7.211575 1.235812 -0.663890 5.162309 0.556498 0.000000 0.000000 0.000000 14.342414 10.373168 -2.740150 6.111450 9.412585 -3.111620 20.614539 47.086016 -18.919320 0.000000 0.000000 0.000000 13.938170 10.195238 -2.933856 10.226833 -12.069013 -1.994356 -2.823923 -7.648181 -7.246234 -10.987295 -3.603434 -44.777832 -87.142648 8.766759 -80.250952 0.000000 0.000000 0.000000 16.459170 11.528224 -1.645792 4.189332 16.941280 -9.598187 -3.570052 -5.536894 -13.757212 -5.143565 37.532053 41.532287 -77.107419 73.875026 65.045360 0.000000 0.000000 0.000000 
